<?xml version="1.0" encoding="utf-8"?>
<!DOCTYPE svg PUBLIC "-//W3C//DTD SVG 1.0//EN" "http://www.w3.org/TR/2001/REC-SVG-20010904/DTD/svg10.dtd">
<svg version="1.0" xmlns="http://www.w3.org/2000/svg" width="1000px" height="1000px" viewBox="0 0 1000 1000" preserveAspectRatio="xMidYMid meet">
 <g fill="#16688a">
  <path d="M610.5 280.8 c-13.8 -2.6 -26.8 -13 -33.1 -26.3 -3.2 -6.6 -3.8 -8.9 -4.2 -16.9 -0.8 -15 3.7 -26.5 14 -36.3 9.8 -9.2 19.7 -13.3 32.4 -13.3 29.5 0 52.1 27.2 46.1 55.6 -3.9 18.5 -17.6 32.6 -35.8 36.9 -7.1 1.6 -12 1.7 -19.4 0.3z"/>
 </g>
 <g fill="#df2026">
  <path d="M787 322.7 c-22.8 -6.4 -31.2 -34.1 -15.6 -51.4 11.8 -13.1 31.5 -14.1 44.9 -2.4 2 1.8 5.1 6.1 6.8 9.7 9.7 19.6 -3.7 43.1 -25.6 44.9 -3.5 0.3 -7.9 -0.1 -10.5 -0.8z"/>
  <path d="M565.2 315.3 c-6.8 -3.3 -8.2 -11.2 -2.9 -16.9 8.9 -9.8 23.3 0.9 17.1 12.7 -1.4 2.8 -6.5 5.9 -9.6 5.9 -0.7 0 -2.8 -0.8 -4.6 -1.7z"/>
  <path d="M289.1 204.4 c-17.8 -4.8 -32.4 -19.9 -36.2 -37.4 -1.6 -7.7 -0.7 -21.3 2.1 -28.3 6.5 -16.9 23.9 -29.9 42.2 -31.4 25.4 -2.1 48.5 16.2 52.8 41.9 5.7 33.7 -27.9 64.1 -60.9 55.2z"/>
 </g>
 <g fill="#e65a33">
  <path d="M317.9 363.6 c-15.7 -5.6 -21 -24.9 -10.3 -37.4 11.3 -13.3 30.6 -11.3 38.9 4 6.5 12 1.6 26.6 -11 32.4 -5.6 2.7 -12 3 -17.6 1z"/>
  <path d="M703.7 183.9 c-19.3 -4.5 -33.3 -25.4 -29.8 -44.4 3.9 -20.9 21 -34.6 41.6 -33.3 13.9 0.9 26.9 9.7 33.2 22.5 2.5 5.2 2.8 6.8 2.8 16.3 0 9.3 -0.3 11.1 -2.7 16.3 -1.5 3.2 -4.1 7.4 -5.7 9.3 -9 11 -25.5 16.6 -39.4 13.3z"/>
 </g>
 <g fill="#09aed6">
  <path d="M220.6 374.9 c-5.6 -4.4 -7 -11 -3.6 -16.6 5.3 -8.7 18 -8.2 22.3 1 2.1 4.3 2.1 5.8 0.3 10.2 -2.9 6.9 -13.3 9.9 -19 5.4z"/>
  <path d="M757 238.1 c-5.1 -1.6 -8.9 -4.2 -12.3 -8.1 -9.3 -10.9 -6.6 -27.8 5.7 -35.5 7.2 -4.4 18 -4.4 25.2 0 19.6 12.1 12.1 42.3 -11 44.1 -2.8 0.2 -6.2 0 -7.6 -0.5z"/>
 </g>
 <g fill="#9bc63d">
  <path d="M337.7 301.6 c-11.5 -4.8 -17.4 -10.4 -22.5 -21.3 -2.4 -5.1 -2.7 -7 -2.7 -15.8 0 -8.8 0.3 -10.7 2.7 -15.7 7.9 -17 27.5 -26.8 44.6 -22.4 8.6 2.2 13.7 5 19.3 10.6 19.3 19.3 13.8 51 -10.8 63.2 -5.7 2.8 -7.8 3.3 -15.7 3.5 -7.9 0.3 -9.9 0 -14.9 -2.1z"/>
  <path d="M562.5 183.6 c-1.6 -0.8 -4.2 -2.6 -5.7 -4.2 -12.4 -13.3 0.5 -35.2 18.1 -30.4 9.1 2.4 15.5 13.1 13.1 22.1 -1.3 4.8 -6.3 10.7 -10.7 12.5 -4.1 1.8 -10.9 1.7 -14.8 0z"/>
 </g>
 <g fill="#8d8e8d">
  <path d="M418 903.3 c0 -9.7 0.2 -17.4 0.4 -17.2 0.2 0.2 5.4 6.3 11.5 13.4 6.2 7.2 11.7 13.2 12.2 13.3 0.5 0.2 0.9 -5.3 0.9 -13.2 0 -11.4 0.2 -13.6 1.5 -13.6 1.3 0 1.5 2.6 1.5 17.7 0 17.3 0 17.7 -1.8 15.8 -1.1 -1.1 -6.6 -7.4 -12.3 -14 l-10.4 -11.9 -0.3 13.7 c-0.2 11.3 -0.5 13.7 -1.7 13.7 -1.3 0 -1.5 -2.8 -1.5 -17.7z"/>
  <path d="M459 903.5 l0 -17.5 10 0 c8.2 0 10 0.3 10 1.5 0 1.2 -1.6 1.5 -8.5 1.5 l-8.5 0 0 6 0 6 8.5 0 c5 0 8.5 0.4 8.5 1 0 0.6 -3.5 1 -8.5 1 l-8.5 0 0 7.5 0 7.5 8.5 0 c6.9 0 8.5 0.3 8.5 1.5 0 1.2 -1.8 1.5 -10 1.5 l-10 0 0 -17.5z"/>
  <path d="M489 903.4 l0 -17.6 8.5 0.3 c9.7 0.5 12.1 2 13.2 8.2 0.5 3.1 0.1 4 -2.5 6.7 -2.8 2.7 -3.6 3 -9.6 3 l-6.6 0 0 8.5 c0 6.9 -0.3 8.5 -1.5 8.5 -1.3 0 -1.5 -2.6 -1.5 -17.6z m14.7 -2.5 c3.3 -1.2 4.3 -2.6 4.3 -5.8 0 -4.4 -2.6 -6.1 -9.7 -6.1 l-6.3 0 0 6.5 0 6.5 4.4 0 c2.5 0 5.7 -0.5 7.3 -1.1z"/>
  <path d="M525.2 910.3 c2.7 -6 6.4 -13.9 8.2 -17.6 l3.1 -6.8 7.9 17.1 c4.3 9.4 7.6 17.3 7.3 17.6 -1.1 1.1 -2.5 -0.7 -4.8 -6.1 l-2.3 -5.5 -8.1 0 -8.1 0 -2.9 6 c-1.6 3.3 -3.4 6 -4.1 6 -0.8 0 0.6 -4.1 3.8 -10.7z m17.8 -3.7 c0 -1.1 -6 -13.6 -6.5 -13.6 -0.6 0 -6.5 12.3 -6.5 13.5 0 0.3 2.9 0.5 6.5 0.5 3.6 0 6.5 -0.2 6.5 -0.4z"/>
  <path d="M563 903.5 c0 -14.9 0.2 -17.5 1.5 -17.5 1.3 0 1.5 2.4 1.5 16 l0 16 7 0 c5.6 0 7 0.3 7 1.5 0 1.2 -1.6 1.5 -8.5 1.5 l-8.5 0 0 -17.5z"/>
  <path d="M228 862.4 c-19.1 -3.1 -31.2 -10.7 -39.5 -24.8 -8.4 -14.3 -8.7 -36.3 -0.7 -50.9 5.8 -10.8 19.1 -21 31.6 -24.3 6.8 -1.8 21.8 -1.8 29.1 0.1 8.4 2.2 16.4 6.8 22.4 12.9 l5.2 5.2 -3.7 2.7 -3.7 2.6 -5.8 -5.4 c-7.8 -7.1 -14.5 -9.7 -27.1 -10.3 -8.1 -0.4 -10.7 -0.1 -16.2 1.8 -24.1 8 -35.1 34.8 -24.2 58.6 11.2 24.3 47.5 30.6 68.4 11.9 l4.9 -4.4 3.1 2.2 c1.8 1.2 3.2 2.7 3.2 3.4 0 1.6 -9.4 9.7 -15 12.7 -7.7 4.2 -24.1 7.3 -32 6z"/>
  <path d="M567 862 c-17.8 -2.7 -33.7 -15.4 -40.1 -31.8 -3.1 -7.9 -3.8 -23.6 -1.4 -31.8 4.7 -16.2 15.8 -28.6 31.5 -34.9 5.8 -2.3 21.6 -3.1 29.2 -1.6 19.6 4.1 36.1 22 38.8 42.1 4.7 34.3 -24.2 63.2 -58 58z m16.1 -9.4 c8.7 -1.9 14.1 -4.7 20.4 -10.7 9 -8.5 13.2 -20.1 12.2 -34.2 -1 -15.2 -9.4 -27.2 -23.7 -34.1 -6.1 -2.9 -7.2 -3.1 -17.5 -3.1 -10.5 0 -11.4 0.2 -17.8 3.3 -21 10.4 -29.7 36.5 -19.1 57.4 5.4 10.7 17.7 19.8 29.2 21.8 7 1.2 9.1 1.1 16.3 -0.4z"/>
  <path d="M299.4 858.2 c1.9 -5.9 44.7 -94.7 45.7 -94.7 0.9 0 45.9 94.3 45.9 96.2 0 0.2 -2.2 0.3 -4.8 0.3 l-4.8 0 -7.7 -16 -7.6 -16 -21.4 0 -21.4 0 -7.4 16 -7.4 16 -4.8 0 c-4.2 0 -4.8 -0.2 -4.3 -1.8z m58.7 -47.4 c-13.3 -28.7 -13.2 -28.5 -14.4 -25.8 -0.6 1.4 -4.4 9.4 -8.4 17.8 -4 8.5 -7.3 15.6 -7.3 15.8 0 0.2 7.6 0.4 17 0.4 l16.9 0 -3.8 -8.2z"/>
  <path d="M417 811.5 c0 -31.8 0.3 -48.5 1 -48.5 0.6 0 15.5 16.6 33.3 37 l32.2 36.9 0.3 -36.9 0.2 -37 4.5 0 4.5 0 0 48.6 c0 28.4 -0.4 48.4 -0.9 48.2 -0.5 -0.1 -15.2 -16.7 -32.8 -36.8 l-31.8 -36.5 -0.3 36.8 -0.2 36.7 -5 0 -5 0 0 -48.5z"/>
  <path d="M656 811.4 l0 -48.6 19.8 0.5 c10.8 0.2 21.4 1 23.4 1.6 5.7 1.8 11.9 7.1 14.7 12.5 5.5 10.7 2 25.2 -7.6 31.5 -5.7 3.8 -10.6 4.8 -27.5 5.7 l-13.8 0.7 0 22.3 0 22.4 -4.5 0 -4.5 0 0 -48.6z m37 -6.5 c5.8 -1.2 11.1 -5.3 13 -9.9 1.8 -4.3 0.8 -12.1 -2 -16 -3.7 -5.2 -7.7 -6.3 -24.2 -6.8 l-14.8 -0.4 0 17.1 0 17.1 11.5 0 c6.2 0 13.7 -0.5 16.5 -1.1z"/>
  <path d="M771 836.8 l0 -23.3 -15.5 -25 -15.5 -25 5.2 -0.3 c2.9 -0.2 5.4 0 5.6 0.5 1.2 3.1 24.1 38.8 24.8 38.7 0.5 -0.1 6.3 -9 12.8 -19.8 l11.9 -19.6 5.3 0 5.4 0 -9.6 15.8 c-5.3 8.6 -12.3 20 -15.5 25.3 l-5.9 9.6 0 23.1 0 23.2 -4.5 0 -4.5 0 0 -23.2z"/>
  <path d="M481.3 702 c-15.4 -0.5 -16.3 -0.6 -18.7 -2.9 -4.3 -4 -3.4 -6.1 5.4 -13.5 12.9 -10.9 15.8 -18.6 20 -52.1 1.1 -9.4 3.6 -26.9 5.5 -39 8 -51.5 13.1 -89 16 -118.9 l1.6 -15.8 -2.9 -6.2 c-5.5 -11.8 -12.9 -17.5 -25.3 -19.6 -3.5 -0.6 -23.3 -1.5 -43.9 -2 -39.2 -1 -42.7 -1.3 -63 -5.7 l-12.5 -2.7 -16 2.3 c-21 3.1 -33.4 2.7 -41.7 -1.1 -3.2 -1.5 -5.8 -3.2 -5.8 -3.7 0 -0.7 0.8 -0.7 2.5 -0.1 5.6 2.1 15.9 3.2 24.2 2.5 4.7 -0.4 8 -1 7.3 -1.5 -0.7 -0.4 1.6 -0.8 5.1 -0.8 3.5 0 7.4 -0.4 8.7 -0.9 2 -0.7 0.8 -1.5 -8.5 -5.2 -5.9 -2.4 -15.5 -6.8 -21.3 -9.8 -11.5 -6 -33.5 -20.2 -32.6 -21 0.3 -0.3 7.2 2.9 15.4 7 17.5 9 33.4 15.4 50.3 20.2 12.5 3.6 36.8 8.9 37.5 8.2 0.2 -0.2 -1.2 -2.1 -3.3 -4.3 -2 -2.1 -4.9 -5.9 -6.4 -8.4 -1.8 -2.8 -6.4 -7.3 -12.6 -12 -9.5 -7.3 -14.5 -13 -15.8 -18 -0.6 -2.3 -0.5 -2.2 1.3 0.5 2.4 3.9 9.8 10.3 15.3 13.4 3.8 2.1 4.1 2.2 3.5 0.5 -3.7 -9.6 -8.1 -31.2 -5.9 -28.9 0.6 0.6 2.5 5.7 4.3 11.5 3.9 12.5 8.1 21.2 14.5 29.9 l4.8 6.5 2.3 -2.8 c1.3 -1.5 3.2 -5.4 4.2 -8.7 1.7 -5.7 3.2 -7.7 3.2 -4.1 0 3.1 -3 13.6 -4.6 16 -1.4 2.2 -1.4 2.5 0.3 3.8 4.1 3.1 10.7 5.6 19.8 7.5 8.2 1.6 14 1.9 38.3 1.9 34.8 0 41.4 1.1 52.4 8.4 l2.8 1.8 -1.4 -4.3 c-0.7 -2.4 -2.8 -9.3 -4.6 -15.4 -4.6 -15.2 -7.1 -17.2 -27.9 -22.4 -11.5 -2.9 -22.8 -7.6 -29.3 -12.2 -2.5 -1.9 -3.8 -2 -14.5 -1.3 -12.9 0.7 -16.3 0 -23 -5.2 -4.9 -3.7 -4 -4.7 1.7 -1.7 5.4 2.8 16.6 4.2 23.4 2.9 l3.5 -0.7 -9.1 -8.7 c-10.3 -9.9 -21.2 -22.1 -20.4 -22.9 0.3 -0.3 5.3 4 11.1 9.5 20.3 19.4 37.8 30.3 55 34.3 8.8 2 18.1 4.8 21.9 6.4 1.5 0.7 1.7 0.5 1.2 -1.1 -4.5 -14.5 -8.2 -72.4 -4.6 -72.4 0.5 0 1.1 2.8 1.4 6.3 2.3 22.6 4 36.4 4.6 37.6 0.6 1.1 1 0.9 2 -1 0.7 -1.3 5 -7.7 9.6 -14.2 9.7 -13.7 12.8 -19.7 15 -28.9 2.2 -9 3.9 -8.9 3 0.3 -0.8 8.4 -3.4 16.4 -7.6 22.8 -1.6 2.6 -3 5.1 -3 5.6 0 0.9 11.6 0.1 14.4 -1.1 1.4 -0.5 1.7 -0.4 1.2 0.4 -1.2 2.1 -7.4 4.1 -14.3 4.8 -6.3 0.7 -6.6 0.8 -10.3 5.5 -4.6 5.8 -7.2 13.1 -7.2 20.2 0.1 6.1 4.1 22.9 11 45 l4.9 15.8 2.7 -3.9 c3.9 -5.7 39.1 -38.8 36.8 -34.7 -0.6 1.1 -6.1 8 -12.2 15.3 -11.1 13.4 -15.1 19.8 -16.5 26.2 -0.8 3.4 -0.7 3.4 7.2 -4 4.4 -4.1 12.4 -10.6 17.9 -14.5 17.9 -12.7 28.9 -24.8 38.7 -42.5 3.6 -6.7 11.7 -26.6 18.1 -45 4.1 -11.6 5.1 -13.8 6.2 -12.7 0.4 0.3 -1.4 8.6 -4 18.3 -2.6 9.7 -4.5 17.9 -4.2 18.1 0.5 0.6 16.2 -1.3 19.1 -2.2 1.8 -0.6 1.7 -0.4 -0.4 1.4 -1.3 1.2 -6.1 3.3 -10.7 4.7 -4.5 1.4 -9 3.1 -9.8 3.8 -0.8 0.6 -3.1 5.1 -5.1 10.1 -2 4.9 -5.4 11.9 -7.5 15.5 -4.7 8 -15.1 20.1 -21.9 25.5 -2.7 2.2 -5 4.3 -5.1 4.6 0 0.3 3.5 -0.4 7.8 -1.7 9.2 -2.6 18.8 -4.1 36.2 -5.4 11.5 -0.8 13.1 -1.2 19.7 -4.6 4 -2 9.8 -6 13 -8.9 l5.7 -5.2 -2.9 -6.4 c-2.9 -6.1 -3 -7 -3 -19.9 0.1 -12.6 0.3 -14.1 3.3 -23 1.8 -5.3 3.7 -10.2 4.2 -11 2 -3.2 1.9 0.1 -0.2 7.6 -3.2 11.8 -3.1 28.2 0.1 38.7 1.4 4.2 2.9 7.6 3.5 7.4 1.9 -0.6 12.1 -14.5 18.6 -25.3 3.7 -6.1 6.7 -10.1 7.2 -9.6 1.8 1.8 -10.9 27.4 -19.2 38.7 -4.6 6.2 -15.2 16.3 -20.4 19.5 -3.4 2.1 -3.7 2.5 -2 3.1 3 1.2 39.9 1 49.9 -0.2 25.5 -3.1 43.5 -12.7 63.8 -33.9 5.4 -5.5 9.7 -9.8 9.7 -9.4 0 0.4 -2.1 3.6 -4.7 7.2 -11.2 15.8 -27.5 27.6 -48.3 35.2 l-7.4 2.8 10.9 5.1 c6.1 2.9 13.1 6 15.7 6.9 2.7 0.9 4.8 2 4.8 2.5 0 2 -15.7 -2.2 -25.9 -6.9 -11.5 -5.3 -13.4 -5.6 -24.7 -3.9 -7.1 1.1 -18 1.5 -39 1.5 -31.3 0 -45.5 1 -57.4 4 -16.4 4.2 -31 12.2 -36.8 20.4 -1.8 2.4 -5 9.6 -7.1 15.8 -3.7 10.9 -3.9 11.9 -4.4 28.3 -0.4 9.4 -1.9 27.1 -3.4 39.5 -2.3 19.5 -2.7 26.3 -2.7 50.5 -0.1 24.5 0.2 29.5 2.1 40.1 3.6 19.6 12.7 44.2 20.4 54.9 1.8 2.5 7.2 7.9 12.1 12.1 4.8 4.1 8.8 8.1 8.8 8.9 0 0.8 -1.2 1.7 -2.7 2 -1.6 0.3 -5.7 1.2 -9.3 2 -6.7 1.4 -42.2 1.7 -78.7 0.5z"/>
 </g>
 <g fill="#bb7787">
  <path d="M137.1 342.6 c-13.5 -4.9 -19.8 -21.5 -12.5 -33.3 4.6 -7.3 10 -10.7 18.4 -11.1 6 -0.4 7.4 -0.1 12.1 2.4 11.5 6.3 15.5 19.6 9.5 31.3 -4.9 9.2 -17.8 14.2 -27.5 10.7z"/>
  <path d="M507.7 290.6 c-11.8 -4.2 -18.7 -14.1 -18.7 -26.5 0.1 -17.6 17.5 -30 35.2 -25.1 8.9 2.5 17.3 12.9 18.5 22.7 1.8 15.6 -11.8 30.5 -27.6 30.3 -2 -0.1 -5.3 -0.7 -7.4 -1.4z"/>
 </g>
 <g fill="#6bc49a">
  <path d="M641.2 328.9 c-14.4 -7.3 -13.1 -28 2 -34.4 5.2 -2.1 9.6 -1.9 14.8 0.8 9.9 5 13.7 15.5 9 25.2 -4.5 9.3 -16.4 13.2 -25.8 8.4z"/>
  <path d="M419.1 249.8 c-10.6 -5.5 -10.6 -19.7 0 -25 6.5 -3.4 13.2 -1.3 18.2 5.4 2.7 3.6 2.7 10.9 0.1 14.5 -5.1 6.8 -11.6 8.6 -18.3 5.1z"/>
 </g>
 <g fill="#eec715">
  <path d="M692.2 269.4 c-8.5 -4.4 -10.1 -16 -3.1 -22.5 7.8 -7.2 20 -3.5 22.9 6.9 0.9 3.6 0.8 4.9 -0.9 8.6 -1 2.4 -3.1 5.2 -4.5 6.1 -3.8 2.5 -10.4 2.9 -14.4 0.9z"/>
  <path d="M114.5 269 c-34.4 -7.5 -50.4 -44.7 -31.7 -73.6 16.5 -25.5 52.7 -29.1 74.1 -7.4 24.7 25.1 15.2 66.5 -18.1 78.8 -6.4 2.4 -18.5 3.5 -24.3 2.2z"/>
  <path d="M394.5 164.4 c-7.4 -4.1 -11.4 -10.6 -11.5 -18.7 0 -10.6 9.8 -20.7 20.4 -20.7 10.5 0 20.6 10.5 20.6 21.5 0 5.2 -4.4 13.1 -9.1 16.2 -5.2 3.5 -15.6 4.3 -20.4 1.7z"/>
 </g>
 <g fill="#efd3e2">
  <path d="M708.6 360.6 c-5.4 -2 -10.6 -6.5 -14.1 -12.1 -2.7 -4.4 -3 -5.6 -3 -13.4 0 -7.6 0.3 -9.2 2.7 -13.2 5.4 -9.1 13.5 -13.8 23.8 -13.9 15.5 0 27 11.4 27 27 0 10.3 -4.8 18.4 -13.7 23.7 -5.6 3.2 -16.6 4.2 -22.7 1.9z"/>
  <path d="M237.3 331.6 c-6.2 -2 -12.6 -6 -16.2 -10.1 -14.6 -16.7 -11.4 -42.8 6.7 -54.3 14.7 -9.4 33 -7.6 45 4.5 22.2 22.3 7.7 59.7 -23.8 61 -4.5 0.2 -9.2 -0.3 -11.7 -1.1z"/>
  <path d="M618 139.1 c-12.1 -3.7 -21.3 -17.1 -19.6 -28.5 2.3 -14.7 14.2 -24.5 28.4 -23.4 22.7 1.7 32.5 28.6 16.4 45.1 -6 6.1 -17.3 9.2 -25.2 6.8z"/>
 </g>
 <g fill="#fff4d2">
  <path d="M417.5 327.6 c-5.6 -2.5 -10.5 -10.1 -10.5 -16.3 0.1 -3.7 3.1 -10.2 6.1 -13 3.1 -2.8 9 -5.3 12.6 -5.3 4.5 0.1 10.8 3.5 13.9 7.5 4 5.3 4.6 13.7 1.3 19.5 -4.4 7.8 -15.1 11.3 -23.4 7.6z"/>
  <path d="M861.6 239.5 c-27.6 -7 -45 -35.3 -38.1 -61.8 6.6 -25.4 31.4 -42.5 56.3 -38.8 20.1 3 36.9 17.6 42.6 37 2 6.7 2.1 19.8 0.2 26.7 -3.2 12 -12.8 24.9 -22.9 30.8 -11 6.5 -26.6 9 -38.1 6.1z"/>
  <path d="M216.6 234.5 c-14.9 -5.3 -16.7 -25.1 -3 -33.1 3.8 -2.2 5.4 -2.6 10.3 -2.2 16.4 1.2 23.1 20.7 10.8 31.5 -3.4 3 -9.1 5.3 -12.7 5.3 -0.8 -0.1 -3.2 -0.7 -5.4 -1.5z"/>
  <path d="M479 208.1 c-9.1 -2.8 -17.4 -10.3 -21.6 -19.5 -7.5 -16.4 0.4 -36.5 17.3 -44.4 8.2 -3.8 19.4 -3.8 27.5 0 22.5 10.4 27.1 39.7 8.8 56.1 -6.6 5.9 -14 8.7 -22.8 8.6 -3.7 0 -7.8 -0.4 -9.2 -0.8z"/>
 </g>
</svg>